<svg width="480" height="480" viewBox="0 0 480 480" fill="none" xmlns="http://www.w3.org/2000/svg">
<g clip-path="url(#clip0_5458_55)">
<path d="M278.944 17.5769C273.376 14.9209 266.816 15.6249 262.016 19.4969L106.368 144.009H32C14.368 144.009 0 158.377 0 176.009V304.009C0 321.641 14.368 336.009 32 336.009H106.368L261.984 460.521C264.896 462.825 268.448 464.009 272 464.009C274.368 464.009 276.736 463.497 278.944 462.441C284.48 459.753 288 454.153 288 448.009V32.0089C288 25.8649 284.48 20.2649 278.944 17.5769ZM96 304.009H32V176.009H96V304.009ZM256 414.697L128 312.297V167.721L256 65.3209V414.697Z" fill="black"/>
<rect x="292.326" y="187.953" width="32" height="180" rx="16" transform="rotate(-45 292.326 187.953)" fill="black"/>
<rect x="314.953" y="315.232" width="32" height="180" rx="16" transform="rotate(-135 314.953 315.232)" fill="black"/>
</g>
<defs>
<clipPath id="clip0_5458_55">
<rect width="480" height="480" fill="white"/>
</clipPath>
</defs>
</svg>
