<svg width="512" height="512" viewBox="0 0 512 512" fill="none" xmlns="http://www.w3.org/2000/svg">
<path d="M27.5833 271.082L176.917 420.416C180.94 424.302 186.329 426.452 191.923 426.403C197.516 426.355 202.867 424.111 206.822 420.156C210.778 416.201 213.021 410.85 213.07 405.256C213.118 399.663 210.968 394.274 207.082 390.25L94.1647 277.333L469.333 277.333C474.991 277.333 480.417 275.085 484.418 271.085C488.418 267.084 490.666 261.658 490.666 256C490.666 250.342 488.418 244.916 484.418 240.915C480.417 236.914 474.991 234.666 469.333 234.666L94.1647 234.666L207.082 121.749C209.12 119.781 210.745 117.427 211.863 114.824C212.981 112.222 213.569 109.422 213.594 106.59C213.619 103.757 213.079 100.948 212.006 98.3261C210.934 95.7043 209.349 93.3224 207.346 91.3193C205.343 89.3163 202.961 87.7322 200.34 86.6596C197.718 85.5869 194.909 85.0471 192.076 85.0717C189.243 85.0964 186.444 85.6849 183.841 86.8029C181.239 87.921 178.885 89.5462 176.917 91.5838L27.5833 240.917C23.5839 244.918 21.3372 250.343 21.3372 256C21.3372 261.657 23.5839 267.082 27.5833 271.082Z" fill="black"/>
</svg>
